<?xml version="1.0" encoding="UTF-8" standalone="no"?>
<!-- Created with Inkscape (http://www.inkscape.org/) -->

<svg
   width="80"
   height="24"
   viewBox="0 0 80 24"
   version="1.1"
   id="svg1"
   xmlns="http://www.w3.org/2000/svg">
  <title
     id="title1">Zug-Fhrerstand-A</title>
  <defs
     id="defs1" />
  <g
     id="layer1">
    <path
       d="M 76.493047,18.261682 V 18.94704 H 74.997489 L 78,17 C 78,13 78,9 78,5 77.572701,4.3146418 76.849132,4.2429907 76.208179,3.9314642 74.214102,2.8722742 74.427753,2 73.28828,2 H 6.7715432 C 5.5608531,2 5.7745043,2.8722742 3.8516437,3.9314642 3.139473,4.2429907 2.4985195,4.2523365 2,5 2,8.9431343 2,13 2,17 l 2.9911167,2.009345 H 3.5667754 V 18.323988 H 2.071217 v 2.679127 H 3.5667754 V 20.317757 H 9.4777915 C 9.9050939,21.314642 11.044567,22 12.326474,22 c 1.21069,0 2.350163,-0.685358 2.848683,-1.682243 H 17.52532 C 17.952622,21.314642 19.092095,22 20.302785,22 c 1.21069,0 2.350163,-0.685358 2.777466,-1.682243 h 6.76562 0.356085 0.783389 5.982233 0.569736 0.854605 0.925822 0.142434 0.356085 0.07122 v 0 h 0.07121 0.356085 0.142434 0.925823 0.854605 0.569736 5.982233 0.783388 0.356085 6.765621 C 57.19322,21.314642 58.261476,22 59.472166,22 c 1.210689,0 2.350162,-0.685358 2.777464,-1.682243 h 2.350164 C 65.027096,21.314642 66.166569,22 67.448476,22 c 1.210691,0 2.350164,-0.685358 2.848683,-1.682243 h 5.911016 v 0.685358 h 1.495562 v -2.679127 z"
       id="path3"
       style="stroke-width:0.888165" />
    <rect
       style="fill:#ffffff;fill-opacity:1;stroke-width:1.36931"
       id="rect4-3-7-2-2-83-5"
       width="6.000001"
       height="4.9999995"
       x="17"
       y="8"
       rx="1"
       ry="1" />
    <rect
       style="fill:#ffffff;fill-opacity:1;stroke-width:1.36931"
       id="rect4-3-7-2-2-83-5-0"
       width="6.000001"
       height="4.9999995"
       x="10"
       y="8"
       rx="1"
       ry="1" />
    <rect
       style="fill:#ffffff;fill-opacity:1;stroke-width:1.36931"
       id="rect4-3-7-2-2-83-5-4"
       width="6.000001"
       height="4.9999995"
       x="43"
       y="8"
       rx="1"
       ry="1" />
    <rect
       style="fill:#ffffff;fill-opacity:1;stroke-width:1.36931"
       id="rect4-3-7-2-2-83-5-4-5"
       width="6.0000014"
       height="5"
       x="24"
       y="8"
       rx="1"
       ry="1" />
    <rect
       style="fill:#ffffff;fill-opacity:1;stroke-width:1.36931"
       id="rect4-3-7-2-2-83-5-4-7"
       width="6.000001"
       height="4.9999995"
       x="57"
       y="8"
       rx="1"
       ry="1" />
    <rect
       style="fill:#ffffff;fill-opacity:1;stroke-width:1.36931"
       id="rect4-3-7-2-2-83-5-4-7-9"
       width="6.000001"
       height="4.9999995"
       x="64"
       y="8"
       rx="1"
       ry="1" />
    <rect
       style="fill:#ffffff;fill-opacity:1;stroke-width:0.968248"
       id="rect4-3-7-2-2-83-5-4-7-9-8"
       width="3.000001"
       height="4.9999995"
       x="71"
       y="8"
       rx="1"
       ry="1" />
    <rect
       style="fill:#ffffff;fill-opacity:1;stroke-width:0.968248"
       id="rect4-3-7-2-2-83-5-4-7-9-8-1"
       width="3.000001"
       height="4.9999995"
       x="6"
       y="8"
       rx="1"
       ry="1" />
    <rect
       style="fill:#ffffff;fill-opacity:1;stroke-width:1.36931"
       id="rect4-3-7-2-2-83-5-0-1-0"
       width="6.000001"
       height="4.9999995"
       x="50"
       y="8"
       rx="1"
       ry="1" />
    <rect
       style="fill:#ffffff;fill-opacity:1;stroke-width:1.76777"
       id="rect4"
       width="5"
       height="10"
       x="31"
       y="8"
       rx="1"
       ry="1" />
    <rect
       style="fill:#ffffff;fill-opacity:1;stroke-width:1.76777"
       id="rect4-3"
       width="5"
       height="10"
       x="36.9375"
       y="8"
       rx="1"
       ry="1" />
    <rect
       style="fill:#040404;fill-opacity:1;stroke-width:0.69282"
       id="rect5"
       width="3"
       height="4"
       x="32"
       y="9" />
    <rect
       style="fill:#040404;fill-opacity:1;stroke-width:0.69282"
       id="rect5-6"
       width="3"
       height="4"
       x="37.9375"
       y="9" />
  </g>
</svg>
